<svg xmlns="http://www.w3.org/2000/svg" viewBox="0 0 680 200" fill="none">
  <rect width="680" height="200" rx="16" fill="#0d1117"/>
  <defs><pattern id="g" width="40" height="40" patternUnits="userSpaceOnUse"><path d="M40 0L0 0 0 40" fill="none" stroke="#161b22" stroke-width="1"/></pattern></defs>
  <rect width="680" height="200" fill="url(#g)"/>
  <g transform="translate(40,40)">
    <rect width="120" height="120" rx="16" fill="#1a2332" stroke="#e05d44" stroke-width="2.5"/>
    <circle cx="40" cy="50" r="12" fill="none" stroke="#e05d44" stroke-width="1.5" opacity="0.5"/>
    <circle cx="80" cy="50" r="12" fill="none" stroke="#58a6ff" stroke-width="1.5" opacity="0.5"/>
    <circle cx="60" cy="75" r="12" fill="none" stroke="#3fb950" stroke-width="1.5" opacity="0.5"/>
    <path d="M40 62 L60 63 L80 62" stroke="#7d8590" stroke-width="1" stroke-dasharray="2,2" fill="none"/>
    <path d="M40 62 L60 87" stroke="#7d8590" stroke-width="1" stroke-dasharray="2,2" fill="none"/>
    <path d="M80 62 L60 87" stroke="#7d8590" stroke-width="1" stroke-dasharray="2,2" fill="none"/>
    <text x="60" y="108" font-family="monospace" font-size="9" fill="#e05d44" text-anchor="middle" opacity="0.6">PROXY POOL</text>
  </g>
  <text x="195" y="72" font-family="'Segoe UI',system-ui,sans-serif" font-size="46" fill="#e6edf3" font-weight="700" letter-spacing="-1">Proxy IP</text>
  <text x="195" y="118" font-family="'Segoe UI',system-ui,sans-serif" font-size="46" fill="#e05d44" font-weight="700" letter-spacing="-1">Pool Crawler</text>
  <text x="197" y="148" font-family="'Segoe UI',system-ui,sans-serif" font-size="14" fill="#7d8590">&#x514D;&#x8D39;&#x4EE3;&#x7406; IP &#x722C;&#x53D6; | &#x5206;&#x5E03;&#x5F0F;&#x67B6;&#x6784; | &#x81EA;&#x52A8;&#x9A8C;&#x8BC1;</text>
  <g transform="translate(197,162)">
    <rect width="66" height="22" rx="11" fill="#1a2332" stroke="#e05d44" stroke-width="1"/>
    <text x="33" y="15" font-family="monospace" font-size="10" fill="#e05d44" text-anchor="middle">Python</text>
    <rect x="76" width="78" height="22" rx="11" fill="#1a2332" stroke="#58a6ff" stroke-width="1"/>
    <text x="115" y="15" font-family="monospace" font-size="10" fill="#58a6ff" text-anchor="middle">Requests</text>
    <rect x="164" width="66" height="22" rx="11" fill="#1a2332" stroke="#3fb950" stroke-width="1"/>
    <text x="197" y="15" font-family="monospace" font-size="10" fill="#3fb950" text-anchor="middle">Proxy</text>
  </g>
</svg>