<svg xmlns="http://www.w3.org/2000/svg" viewBox="0 0 680 180" fill="none">
  <rect width="680" height="180" rx="16" fill="#0d1117"/>
  <defs><pattern id="g" width="40" height="40" patternUnits="userSpaceOnUse"><path d="M40 0L0 0 0 40" fill="none" stroke="#161b22" stroke-width="1"/></pattern></defs>
  <rect width="680" height="180" fill="url(#g)"/>
  <g transform="translate(30,50)">
    <rect width="80" height="80" rx="14" fill="#1a2332" stroke="#e05d44" stroke-width="2"/>
    <circle cx="28" cy="30" r="8" fill="none" stroke="#e05d44" stroke-width="1.2" opacity="0.5"/>
    <circle cx="52" cy="30" r="8" fill="none" stroke="#58a6ff" stroke-width="1.2" opacity="0.5"/>
    <circle cx="40" cy="50" r="8" fill="none" stroke="#3fb950" stroke-width="1.2" opacity="0.5"/>
    <path d="M28 38 L40 42 L52 38" stroke="#7d8590" stroke-width="0.8" stroke-dasharray="2,2" fill="none"/>
    <path d="M28 38 L40 58" stroke="#7d8590" stroke-width="0.8" stroke-dasharray="2,2" fill="none"/>
    <path d="M52 38 L40 58" stroke="#7d8590" stroke-width="0.8" stroke-dasharray="2,2" fill="none"/>
  </g>
  <text x="135" y="76" font-family="'Segoe UI',system-ui,sans-serif" font-size="42" fill="#e6edf3" font-weight="700" letter-spacing="-1">Proxy IP Pool Crawler</text>
  <text x="137" y="104" font-family="'Segoe UI',system-ui,sans-serif" font-size="14" fill="#7d8590">&#x514D;&#x8D39;&#x4EE3;&#x7406; IP &#x722C;&#x53D6; | &#x591A;&#x6E90;&#x805A;&#x5408; | &#x81EA;&#x52A8;&#x9A8C;&#x8BC1;</text>
  <g transform="translate(137,116)">
    <rect width="66" height="22" rx="11" fill="#1a2332" stroke="#e05d44" stroke-width="1"/>
    <text x="33" y="15" font-family="monospace" font-size="10" fill="#e05d44" text-anchor="middle">Python</text>
    <rect x="76" width="78" height="22" rx="11" fill="#1a2332" stroke="#58a6ff" stroke-width="1"/>
    <text x="115" y="15" font-family="monospace" font-size="10" fill="#58a6ff" text-anchor="middle">Requests</text>
    <rect x="164" width="66" height="22" rx="11" fill="#1a2332" stroke="#3fb950" stroke-width="1"/>
    <text x="197" y="15" font-family="monospace" font-size="10" fill="#3fb950" text-anchor="middle">lxml</text>
  </g>
</svg>